<?xml version="1.0" encoding="utf-8" standalone="no"?>
<!DOCTYPE svg PUBLIC "-//W3C//DTD SVG 1.1//EN" "http://www.w3.org/Graphics/SVG/1.1/DTD/svg11.dtd">
<svg version="1.1" width="48pt" height="48pt" viewBox="0 0 48 48" xmlns="http://www.w3.org/2000/svg">
  <defs />
  <g id="Layer_01">
    <path d="M0,48 C5.4403925,48 10.880785,48 16.321177,48 C10.880786,42.55961 5.4403934,37.119217 1.1190552E-06,31.678825 C7.460368E-07,37.119217 3.730184E-07,42.55961 0,48 z" stroke="#000000" stroke-width="0" fill="#C80000" fill-opacity="1" />
    <path d="M31.020773,22.607529 C32.200943,23.787699 33.38111,24.967869 34.56128,26.148035 C34.56128,24.00167 34.56128,21.855309 34.56128,19.708944 C33.378998,18.526665 32.19672,17.344383 31.01444,16.162104 C31.01444,18.304811 31.01444,20.447521 31.01444,22.590229 C31.01655,22.59234 31.01866,22.594452 31.020773,22.596563 C31.020773,22.600218 31.020773,22.603874 31.020773,22.607529 z" stroke="#000000" stroke-width="0" fill="#C80000" fill-opacity="1" />
    <path d="M15.038742,14.573431 C20.055878,14.573431 25.073011,14.573431 30.090145,14.573431 C30.090147,9.715621 30.090147,4.8578105 30.090149,1.6353567E-07 C20.060099,1.6353567E-07 10.030049,1.6353567E-07 3.2707135E-07,1.6353567E-07 C3.2707135E-07,4.8578105 3.2707135E-07,9.715621 3.2707135E-07,14.573431 C5.0129147,14.573431 10.025828,14.573431 15.038742,14.573431 z" stroke="#000000" stroke-width="0" fill="#C80000" fill-opacity="1" />
    <path d="M15.504055,15.504055 C15.504055,17.778912 15.504055,20.053768 15.504055,22.328625 C17.778912,22.328625 20.053768,22.328625 22.328625,22.328625 C22.328625,20.053768 22.328625,17.778912 22.328625,15.504055 C20.053768,15.504055 17.778912,15.504055 15.504055,15.504055 z" stroke="#000000" stroke-width="0" fill="#C80000" fill-opacity="1" />
    <path d="M39.83941,8.160588 C42.55961,10.880785 45.279804,13.600982 48,16.321177 C48,10.880785 48,5.4403925 48,1.6353567E-07 C42.55961,1.6353567E-07 37.119213,1.6353567E-07 31.678822,1.6353567E-07 C34.399017,2.7201965 37.119213,5.4403925 39.83941,8.160588 z" stroke="#000000" stroke-width="0" fill="#C80000" fill-opacity="1" />
    <path d="M39.9757,23.80726 C42.650463,26.482029 45.325233,29.156796 48,31.831564 C48,27.100136 48,22.368706 48,17.637278 C45.325233,14.96251 42.650463,12.287743 39.9757,9.612976 C39.9757,14.344404 39.9757,19.075832 39.9757,23.80726 z" stroke="#000000" stroke-width="0" fill="#C80000" fill-opacity="1" />
    <path d="M17.637278,48 C22.368706,48 27.100136,48 31.831564,48 C26.171822,42.340256 20.51208,36.680515 14.852336,31.020773 C10.120907,31.020773 5.3894787,31.020773 0.6580503,31.020773 C6.317793,36.680515 11.977535,42.340256 17.637278,48 z" stroke="#000000" stroke-width="0" fill="#C80000" fill-opacity="1" />
    <path d="M31.020773,14.852337 C33.69554,17.527105 36.370308,20.20187 39.045074,22.876638 C39.045074,18.14521 39.045074,13.413781 39.045074,8.682352 C36.370308,6.007585 33.69554,3.3328176 31.020773,0.6580501 C31.020773,5.3894787 31.020773,10.120908 31.020773,14.852337 z" stroke="#000000" stroke-width="0" fill="#C80000" fill-opacity="1" />
    <path d="M39.9757,39.317646 C42.650463,41.992416 45.325233,44.667183 48,47.34195 C48,42.61052 48,37.879093 48,33.147663 C45.325233,30.472895 42.650463,27.79813 39.9757,25.123362 C39.9757,29.85479 39.9757,34.58622 39.9757,39.317646 z" stroke="#000000" stroke-width="0" fill="#C80000" fill-opacity="1" />
    <path d="M14.573431,22.986673 C14.573431,20.492466 14.573431,17.99826 14.573431,15.504055 C9.715621,15.504055 4.8578105,15.504055 3.2707135E-07,15.504055 C3.2707135E-07,20.366085 3.2707135E-07,25.228117 3.2707135E-07,30.090149 C4.859921,30.090149 9.719842,30.090149 14.5797615,30.090149 C14.579762,27.724434 14.579762,25.358719 14.579762,22.993006 C14.577653,22.990894 14.5755415,22.988783 14.573431,22.986673 z" stroke="#000000" stroke-width="0" fill="#C80000" fill-opacity="1" />
    <path d="M30.362722,31.020773 C25.631294,31.020773 20.899864,31.020773 16.168436,31.020773 C18.843204,33.69554 21.517971,36.370304 24.19274,39.045074 C28.924168,39.045074 33.655594,39.045074 38.387024,39.045074 C35.712257,36.370304 33.03749,33.69554 30.362722,31.020773 z" stroke="#000000" stroke-width="0" fill="#C80000" fill-opacity="1" />
    <path d="M35.498238,34.840183 C36.676292,36.018246 37.854355,37.1963 39.03241,38.374363 C39.03241,36.227997 39.03241,34.081635 39.03241,31.935266 C37.854355,30.757208 36.676292,29.579151 35.498238,28.401093 C35.498238,30.547457 35.498238,32.69382 35.498238,34.840183 z" stroke="#000000" stroke-width="0" fill="#C80000" fill-opacity="1" />
    <path d="M30.090149,23.259247 C25.230228,23.259247 20.370308,23.259247 15.510386,23.259247 C15.510386,25.536215 15.510386,27.813183 15.510386,30.090149 C20.370308,30.090149 25.230228,30.090149 30.090149,30.090149 C30.090149,27.813183 30.090149,25.536215 30.090149,23.259247 z" stroke="#000000" stroke-width="0" fill="#C80000" fill-opacity="1" />
    <path d="M33.147663,48 C37.879093,48 42.61052,48 47.34195,48 C44.667183,45.325233 41.992416,42.650463 39.317646,39.975697 C34.58622,39.975697 29.85479,39.975697 25.123362,39.975697 C27.79813,42.650463 30.472897,45.325233 33.147663,48 z" stroke="#000000" stroke-width="0" fill="#C80000" fill-opacity="1" />
    <path d="M30.083817,22.328625 C30.083817,20.053768 30.083817,17.778912 30.083817,15.504055 C27.80896,15.504055 25.534103,15.504055 23.259247,15.504055 C23.259247,17.778912 23.259247,20.053768 23.259247,22.328625 C25.534103,22.328625 27.80896,22.328625 30.083817,22.328625 z" stroke="#000000" stroke-width="0" fill="#C80000" fill-opacity="1" />
    <path d="M39.038742,24.186407 C37.85646,23.004126 36.674183,21.821846 35.491905,20.639566 C35.491905,22.78593 35.491905,24.932297 35.491905,27.078661 C36.674183,28.260939 37.85646,29.44322 39.038742,30.6255 C39.038742,28.479136 39.038742,26.332771 39.038742,24.186407 z" stroke="#000000" stroke-width="0" fill="#C80000" fill-opacity="1" />
    <path d="M31.020773,30.362722 C32.19883,31.540781 33.37689,32.718838 34.554947,33.896896 C34.554947,31.750532 34.554947,29.604168 34.554947,27.457804 C33.37689,26.279745 32.19883,25.101686 31.020773,23.923628 C31.020773,26.069992 31.020773,28.216356 31.020773,30.362722 z" stroke="#000000" stroke-width="0" fill="#C80000" fill-opacity="1" />
  </g>
</svg>