<?xml version="1.0" encoding="utf-8" standalone="no"?>
<!DOCTYPE svg PUBLIC "-//W3C//DTD SVG 1.1//EN" "http://www.w3.org/Graphics/SVG/1.1/DTD/svg11.dtd">
<svg version="1.1" width="48pt" height="48pt" viewBox="0 0 48 48" xmlns="http://www.w3.org/2000/svg">
  <defs />
  <g id="Layer_01">
    <path d="M47.9899,35.618763 C47.9899,31.989899 47.9899,28.361034 47.9899,24.732168 C44.36103,24.732168 40.732166,24.732168 37.103302,24.732168 C37.103302,28.361034 37.103302,31.989899 37.103302,35.618763 C40.732166,35.618763 44.36103,35.618763 47.9899,35.618763 z" stroke="#000000" stroke-width="0" fill="#C80000" fill-opacity="1" />
    <path d="M24.732168,24.732168 C24.732168,28.361034 24.732168,31.989899 24.732168,35.618763 C28.361034,35.618763 31.989899,35.618763 35.618763,35.618763 C35.618763,31.989899 35.618763,28.361034 35.618763,24.732168 C31.989899,24.732168 28.361034,24.732168 24.732168,24.732168 z" stroke="#000000" stroke-width="0" fill="#C80000" fill-opacity="1" />
    <path d="M23.247631,36.668488 C23.247631,32.689716 23.247631,28.710941 23.247631,24.732168 C15.498421,24.732168 7.7492104,24.732168 0,24.732168 C0,32.48811 0,40.244057 0,48 C7.752577,48 15.505154,48 23.25773,48 C23.25773,44.226196 23.25773,40.452393 23.257732,36.678593 C23.254366,36.675224 23.250998,36.67186 23.247631,36.668488 z" stroke="#000000" stroke-width="0" fill="#C80000" fill-opacity="1" />
    <path d="M23.9899,23.247631 C31.993263,23.247631 39.996628,23.247631 47.999992,23.247631 C47.999996,15.498421 47.999996,7.7492104 48,-1.364242E-14 C31.999998,-1.364242E-14 15.999999,-1.364242E-14 0,-1.364242E-14 C0,7.7492104 0,15.498421 0,23.247631 C7.9966335,23.247631 15.993267,23.247631 23.9899,23.247631 z" stroke="#000000" stroke-width="0" fill="#C80000" fill-opacity="1" />
    <path d="M48,37.103302 C40.247425,37.103302 32.494846,37.103302 24.742268,37.103302 C24.742268,40.73553 24.742268,44.367767 24.742268,48 C32.494846,48 40.247425,48 48,48 C48,44.367767 48,40.73553 48,37.103302 z" stroke="#000000" stroke-width="0" fill="#C80000" fill-opacity="1" />
  </g>
</svg>